# xmcd
#
# Track frame offsets: 
#        150
#        21589
#        47441
#        68541
#        92184
#        121495
#        142009
#        162448
#        186558
#        209525
#        235124
#
# Disc length: 3267 seconds
#
# Revision: 0
# Processed by: cddbd v1.5.2PL0 Copyright (c) Steve Scherf et al.
# Submitted via: ExactAudioCopy v1.0b4
#
DISCID=a20cc10b
DTITLE=Willie Dixon's Original Chicago Blues All Stars - Gold - Disc 2
DYEAR=2017
DGENRE=Blues
TTITLE0=Woke Up This Morning
TTITLE1=As The Years Go Passing By
TTITLE2=Hoo Doo Doctor
TTITLE3=Blind Man
TTITLE4=Chicken Heads
TTITLE5=I'll Play The Blues For You
TTITLE6=Further On Up The Road
TTITLE7=Mercy Mercy
TTITLE8=Jammin' In G
TTITLE9=The Thrill Is Gone
TTITLE10=Break Time
EXTD=
EXTT0=
EXTT1=
EXTT2=
EXTT3=
EXTT4=
EXTT5=
EXTT6=
EXTT7=
EXTT8=
EXTT9=
EXTT10=
PLAYORDER=
